<svg width="117" height="64" viewBox="0 0 117 64" fill="none" xmlns="http://www.w3.org/2000/svg">
<circle cx="54" cy="21" r="15" fill="#F7DF1E"/>
<ellipse cx="74.5" cy="42" rx="12.5" ry="13" fill="#1572B6"/>
<ellipse cx="81.5" cy="13" rx="12.5" ry="13" fill="#1572B6"/>
<circle cx="69" cy="23" r="23" fill="#E44D26"/>
<circle cx="58" cy="49" r="15" transform="rotate(-180 58 49)" fill="#F7DF1E"/>
<circle cx="35" cy="35" r="15" transform="rotate(-180 35 35)" fill="#F7DF1E"/>
<ellipse cx="44.5" cy="34" rx="12.5" ry="13" transform="rotate(-180 44.5 34)" fill="#1572B6"/>
<ellipse cx="30.5" cy="47" rx="12.5" ry="13" transform="rotate(-180 30.5 47)" fill="#2E4F82"/>
<circle cx="45" cy="50" r="14" transform="rotate(-180 45 50)" fill="#E44D26"/>
<circle cx="7" cy="47" r="7" transform="rotate(-180 7 47)" fill="#D34A47"/>
<circle cx="110" cy="14" r="7" transform="rotate(-180 110 14)" fill="#808080"/>
<rect x="35" y="13" width="45" height="45" rx="5" fill="black"/>
<circle cx="49" cy="26" r="7" fill="white" stroke="white" stroke-width="2"/>
<circle cx="67" cy="26" r="7" fill="white" stroke="white" stroke-width="2"/>
<circle cx="67" cy="44" r="7" fill="white" stroke="white" stroke-width="2"/>
<line x1="43" y1="49.8787" x2="56.8787" y2="36" stroke="white" stroke-width="3" stroke-linecap="round"/>
</svg>
