<svg width="70" height="70" viewBox="0 0 70 70" fill="none" xmlns="http://www.w3.org/2000/svg">
<circle cx="35" cy="35" r="35" fill="#444444"/>
<path d="M47.3763 38.0493C46.9652 37.9078 46.5391 37.7739 46.1005 37.6473C46.1726 37.353 46.2387 37.0625 46.2976 36.777C47.2634 32.0888 46.6319 28.312 44.4756 27.0685C42.4079 25.8762 39.0264 27.1194 35.6113 30.0915C35.2829 30.3773 34.9536 30.6798 34.6244 30.997C34.4051 30.7871 34.1861 30.5844 33.9677 30.3904C30.3885 27.2125 26.8009 25.8733 24.6467 27.1204C22.581 28.3162 21.9693 31.8668 22.8387 36.3098C22.9226 36.7389 23.0208 37.1772 23.1317 37.6228C22.624 37.7669 22.1338 37.9206 21.6648 38.084C17.4686 39.547 14.7888 41.8398 14.7888 44.2181C14.7888 46.6744 17.6656 49.1381 22.0363 50.632C22.3812 50.7499 22.7391 50.8614 23.1079 50.9672C22.9882 51.4491 22.884 51.9214 22.7966 52.382C21.9677 56.7479 22.615 60.2146 24.6752 61.4029C26.8032 62.63 30.3745 61.3687 33.8521 58.3288C34.127 58.0886 34.4028 57.8337 34.6791 57.5666C35.0373 57.9116 35.3949 58.238 35.7506 58.5442C39.1191 61.4428 42.446 62.6133 44.5042 61.4217C46.6301 60.1911 47.321 56.467 46.424 51.936C46.3555 51.59 46.2758 51.2365 46.1863 50.8767C46.4371 50.8025 46.6833 50.726 46.9233 50.6464C51.4671 49.141 54.4233 46.7072 54.4233 44.2181C54.4233 41.8312 51.657 39.5229 47.3763 38.0493ZM46.3908 49.0392C46.1741 49.111 45.9517 49.1803 45.7251 49.2476C45.2235 47.6596 44.5466 45.971 43.7181 44.2264C44.5087 42.5233 45.1595 40.8563 45.647 39.2786C46.0525 39.396 46.446 39.5197 46.8252 39.6503C50.4929 40.9129 52.7302 42.7797 52.7302 44.2181C52.7302 45.7503 50.314 47.7393 46.3908 49.0392ZM44.763 52.2649C45.1596 54.2684 45.2163 56.0798 44.9535 57.4959C44.7175 58.7683 44.2428 59.6167 43.6558 59.9564C42.4067 60.6794 39.7356 59.7396 36.8549 57.2607C36.5246 56.9765 36.192 56.6731 35.8583 56.3519C36.9751 55.1305 38.0912 53.7106 39.1806 52.1336C41.0966 51.9636 42.9069 51.6856 44.5485 51.3061C44.6293 51.6323 44.7011 51.9521 44.763 52.2649ZM28.3011 59.8315C27.0807 60.2625 26.1088 60.2748 25.5212 59.936C24.271 59.2149 23.7513 56.4315 24.4603 52.6978C24.5415 52.2702 24.6381 51.8309 24.7495 51.382C26.3731 51.741 28.1701 51.9993 30.0907 52.155C31.1874 53.6982 32.3358 55.1165 33.4931 56.3585C33.2402 56.6026 32.9884 56.835 32.7379 57.054C31.2002 58.3981 29.6592 59.3518 28.3011 59.8315ZM22.5839 49.0299C20.6512 48.3693 19.0552 47.5108 17.9612 46.574C16.9782 45.7321 16.4819 44.8963 16.4819 44.2181C16.4819 42.7749 18.6335 40.9341 22.2222 39.6829C22.6576 39.5311 23.1134 39.388 23.5864 39.2536C24.0824 40.8669 24.733 42.5537 25.5181 44.2593C24.7228 45.9903 24.063 47.704 23.5622 49.3362C23.2249 49.2392 22.8982 49.1372 22.5839 49.0299ZM24.5003 35.9846C23.7555 32.1779 24.2502 29.3063 25.495 28.5857C26.821 27.8181 29.7531 28.9126 32.8434 31.6566C33.0409 31.832 33.2392 32.0155 33.4381 32.2055C32.2865 33.442 31.1487 34.8497 30.0617 36.3837C28.1977 36.5565 26.4133 36.834 24.7728 37.2057C24.6696 36.7908 24.5783 36.3832 24.5003 35.9846ZM41.5969 40.2062C41.2047 39.5288 40.8021 38.8674 40.3916 38.2241C41.6562 38.3839 42.8678 38.5961 44.0057 38.8558C43.6641 39.9506 43.2383 41.0953 42.7371 42.2687C42.3776 41.5862 41.9973 40.8979 41.5969 40.2062ZM34.625 33.4155C35.4059 34.2616 36.188 35.2063 36.9573 36.2312C36.1821 36.1946 35.3973 36.1755 34.6061 36.1755C33.8223 36.1755 33.0432 36.1942 32.2729 36.2301C33.0429 35.2147 33.8318 34.2713 34.625 33.4155ZM27.6084 40.2179C27.2166 40.8972 26.8434 41.5817 26.4895 42.2674C25.9965 41.0981 25.5746 39.9482 25.2301 38.8379C26.3609 38.5849 27.5668 38.3779 28.8234 38.2211C28.4071 38.8704 28.0012 39.5366 27.6084 40.2178V40.2179ZM28.8596 50.3359C27.5613 50.1911 26.3373 49.9948 25.2067 49.7487C25.5568 48.6186 25.9879 47.4442 26.4914 46.2497C26.8462 46.9349 27.2209 47.6196 27.6151 48.3004H27.6151C28.0166 48.994 28.4326 49.6734 28.8596 50.3359ZM34.6718 55.1401C33.8693 54.2743 33.0689 53.3165 32.2871 52.2863C33.046 52.316 33.8197 52.3313 34.6061 52.3313C35.4139 52.3313 36.2125 52.3131 36.9986 52.2781C36.2268 53.3269 35.4475 54.2861 34.6718 55.1401ZM42.7533 46.1888C43.283 47.3962 43.7296 48.5645 44.0842 49.6754C42.935 49.9375 41.6943 50.1487 40.387 50.3056C40.7984 49.6536 41.2046 48.9808 41.6037 48.2888C42.0074 47.5887 42.3908 46.8875 42.7533 46.1888ZM40.137 47.4429C39.5175 48.5172 38.8814 49.5427 38.2357 50.5107C37.0595 50.5948 35.8445 50.6381 34.6061 50.6381C33.3726 50.6381 32.1729 50.5998 31.0176 50.5248C30.3458 49.5441 29.6959 48.5156 29.0803 47.4522H29.0804C28.4665 46.3917 27.9014 45.3222 27.3893 44.2588C27.9012 43.1928 28.4648 42.1222 29.0753 41.0636L29.0751 41.0638C29.6872 40.0024 30.3314 38.9789 30.997 38.0043C32.1757 37.9152 33.3844 37.8687 34.606 37.8687H34.6061C35.8331 37.8687 37.0434 37.9156 38.2218 38.0054C38.8772 38.9729 39.517 39.9931 40.1314 41.0546C40.7529 42.1281 41.3238 43.1916 41.8401 44.2347C41.3254 45.2957 40.7557 46.3699 40.137 47.4429ZM43.6298 28.5354C44.9571 29.3007 45.4732 32.3875 44.6393 36.4353C44.5861 36.6936 44.5262 36.9567 44.4612 37.2233C42.8168 36.8438 41.0312 36.5615 39.1618 36.3861C38.0727 34.8352 36.9441 33.4253 35.8113 32.2047C36.1159 31.9117 36.42 31.6323 36.7229 31.3687C39.649 28.8222 42.3838 27.8168 43.6298 28.5354ZM34.6061 40.6789C36.5607 40.6789 38.1453 42.2634 38.1453 44.2181C38.1453 46.1728 36.5607 47.7574 34.6061 47.7574C32.6514 47.7574 31.0668 46.1728 31.0668 44.2181C31.0668 42.2634 32.6514 40.6789 34.6061 40.6789Z" fill="#00D8FF"/>
<path d="M8.60154 22.8733V11.4202H13.4687C14.6927 11.4202 15.5807 11.5243 16.1328 11.7327C16.6901 11.9358 17.1354 12.3004 17.4687 12.8264C17.8021 13.3525 17.9687 13.954 17.9687 14.6311C17.9687 15.4905 17.7161 16.2014 17.2109 16.7639C16.7057 17.3212 15.9505 17.6728 14.9453 17.8186C15.4453 18.1103 15.8567 18.4306 16.1797 18.7795C16.5078 19.1285 16.9479 19.7483 17.5 20.6389L18.8984 22.8733H16.1328L14.4609 20.3811C13.8672 19.4905 13.4609 18.9306 13.2422 18.7014C13.0234 18.467 12.7916 18.3082 12.5468 18.2249C12.3021 18.1363 11.914 18.092 11.3828 18.092H10.914V22.8733H8.60154ZM10.914 16.2639H12.625C13.7343 16.2639 14.4271 16.217 14.7031 16.1233C14.9791 16.0295 15.1953 15.8681 15.3515 15.6389C15.5078 15.4097 15.5859 15.1233 15.5859 14.7795C15.5859 14.3941 15.4817 14.0842 15.2734 13.8499C15.0703 13.6103 14.7812 13.4592 14.4062 13.3967C14.2187 13.3707 13.6562 13.3577 12.7187 13.3577H10.914V16.2639ZM20.1562 22.8733V11.4202H28.6484V13.3577H22.4687V15.8967H28.2187V17.8264H22.4687V20.9436H28.8672V22.8733H20.1562ZM41.1562 22.8733H38.6406L37.6406 20.2717H33.0625L32.1172 22.8733H29.664L34.125 11.4202H36.5703L41.1562 22.8733ZM36.8984 18.342L35.3203 14.092L33.7734 18.342H36.8984ZM49.7187 18.6624L51.9609 19.3733C51.6172 20.6233 51.0442 21.553 50.2422 22.1624C49.4453 22.7665 48.4323 23.0686 47.2031 23.0686C45.6823 23.0686 44.4323 22.5504 43.4531 21.5139C42.4739 20.4722 41.9843 19.0504 41.9843 17.2483C41.9843 15.342 42.4765 13.8629 43.4609 12.8108C44.4453 11.7535 45.7396 11.2249 47.3437 11.2249C48.7448 11.2249 49.8828 11.6389 50.7578 12.467C51.2786 12.9566 51.6692 13.6597 51.9297 14.5764L49.6406 15.1233C49.5052 14.5295 49.2213 14.0608 48.789 13.717C48.362 13.3733 47.8411 13.2014 47.2265 13.2014C46.3776 13.2014 45.6875 13.5061 45.1562 14.1155C44.6302 14.7249 44.3672 15.7118 44.3672 17.0764C44.3672 18.5243 44.6276 19.5556 45.1484 20.1702C45.6692 20.7847 46.3463 21.092 47.1797 21.092C47.7942 21.092 48.3229 20.8967 48.7656 20.5061C49.2083 20.1155 49.526 19.5009 49.7187 18.6624ZM56.5312 22.8733V13.3577H53.1328V11.4202H62.2343V13.3577H58.8437V22.8733H56.5312Z" fill="white"/>
</svg>
