<svg width="70" height="70" viewBox="0 0 70 70" fill="none" xmlns="http://www.w3.org/2000/svg">
<circle cx="35" cy="35" r="35" fill="#F1DC50"/>
<path d="M30.5078 6.54688H32.8125V13.7969C32.8125 14.7448 32.7292 15.474 32.5625 15.9844C32.3385 16.651 31.9323 17.1875 31.3438 17.5938C30.7552 17.9948 29.9792 18.1953 29.0156 18.1953C27.8854 18.1953 27.0156 17.8802 26.4062 17.25C25.7969 16.6146 25.4896 15.6849 25.4844 14.4609L27.6641 14.2109C27.6901 14.8672 27.7865 15.3307 27.9531 15.6016C28.2031 16.013 28.5833 16.2188 29.0938 16.2188C29.6094 16.2188 29.974 16.0729 30.1875 15.7812C30.401 15.4844 30.5078 14.8724 30.5078 13.9453V6.54688ZM34.6953 14.2734L36.9453 14.0547C37.0807 14.8099 37.3542 15.3646 37.7656 15.7188C38.1823 16.0729 38.7422 16.25 39.4453 16.25C40.1901 16.25 40.75 16.0938 41.125 15.7812C41.5052 15.4635 41.6953 15.0938 41.6953 14.6719C41.6953 14.401 41.6146 14.1719 41.4531 13.9844C41.2969 13.7917 41.0208 13.625 40.625 13.4844C40.3542 13.3906 39.737 13.224 38.7734 12.9844C37.5339 12.6771 36.6641 12.2995 36.1641 11.8516C35.4609 11.2214 35.1094 10.4531 35.1094 9.54688C35.1094 8.96354 35.2734 8.41927 35.6016 7.91406C35.9349 7.40365 36.4115 7.01562 37.0312 6.75C37.6562 6.48438 38.4089 6.35156 39.2891 6.35156C40.7266 6.35156 41.8073 6.66667 42.5312 7.29688C43.2604 7.92708 43.6432 8.76823 43.6797 9.82031L41.3672 9.92188C41.2682 9.33333 41.0547 8.91146 40.7266 8.65625C40.4036 8.39583 39.9167 8.26562 39.2656 8.26562C38.5938 8.26562 38.0677 8.40365 37.6875 8.67969C37.4427 8.85677 37.3203 9.09375 37.3203 9.39062C37.3203 9.66146 37.4349 9.89323 37.6641 10.0859C37.9557 10.3307 38.6641 10.5859 39.7891 10.8516C40.9141 11.1172 41.7448 11.3932 42.2812 11.6797C42.8229 11.9609 43.2448 12.349 43.5469 12.8438C43.8542 13.3333 44.0078 13.9401 44.0078 14.6641C44.0078 15.3203 43.8255 15.9349 43.4609 16.5078C43.0964 17.0807 42.5807 17.5078 41.9141 17.7891C41.2474 18.0651 40.4167 18.2031 39.4219 18.2031C37.974 18.2031 36.862 17.8698 36.0859 17.2031C35.3099 16.5312 34.8464 15.5547 34.6953 14.2734Z" fill="#444444"/>
<path fill-rule="evenodd" clip-rule="evenodd" d="M17 22H54L50.8692 60.6419L35.5 65L20.4154 60.6419L17 22ZM30.0923 51.0541L22.9769 49.3108V53.6689L34.0769 56.8649V30.1351H30.0923V51.0541ZM50.8692 25.4865H35.5V61.5135L47.7385 58.027L50.8692 25.4865Z" fill="white"/>
<path fill-rule="evenodd" clip-rule="evenodd" d="M35.5 25.4865H50.8692L47.7385 58.027L35.5 61.5135V25.4865ZM48.3077 30.1351H36.9231V46.1149L43.4692 45.2432L42.9 50.473L36.9231 52.2162V56.8649L46.6 53.9595L47.7385 40.3041L41.1923 41.4662V34.2027H48.0231L48.3077 30.1351Z" fill="#F2F2F2"/>
</svg>
