<svg width="70" height="70" viewBox="0 0 70 70" fill="none" xmlns="http://www.w3.org/2000/svg">
<circle cx="35" cy="35" r="35" fill="#56A6D2"/>
<path d="M15.3281 18V6.64062H17.6406V16.0703H23.3906V18H15.3281ZM25.0469 18V6.54688H33.5391V8.48438H27.3594V11.0234H33.1094V12.9531H27.3594V16.0703H33.7578V18H25.0469ZM35.1328 14.2734L37.3828 14.0547C37.5182 14.8099 37.7917 15.3646 38.2031 15.7188C38.6198 16.0729 39.1797 16.25 39.8828 16.25C40.6276 16.25 41.1875 16.0938 41.5625 15.7812C41.9427 15.4635 42.1328 15.0938 42.1328 14.6719C42.1328 14.401 42.0521 14.1719 41.8906 13.9844C41.7344 13.7917 41.4583 13.625 41.0625 13.4844C40.7917 13.3906 40.1745 13.224 39.2109 12.9844C37.9714 12.6771 37.1016 12.2995 36.6016 11.8516C35.8984 11.2214 35.5469 10.4531 35.5469 9.54688C35.5469 8.96354 35.7109 8.41927 36.0391 7.91406C36.3724 7.40365 36.849 7.01562 37.4688 6.75C38.0938 6.48438 38.8464 6.35156 39.7266 6.35156C41.1641 6.35156 42.2448 6.66667 42.9688 7.29688C43.6979 7.92708 44.0807 8.76823 44.1172 9.82031L41.8047 9.92188C41.7057 9.33333 41.4922 8.91146 41.1641 8.65625C40.8411 8.39583 40.3542 8.26562 39.7031 8.26562C39.0312 8.26562 38.5052 8.40365 38.125 8.67969C37.8802 8.85677 37.7578 9.09375 37.7578 9.39062C37.7578 9.66146 37.8724 9.89323 38.1016 10.0859C38.3932 10.3307 39.1016 10.5859 40.2266 10.8516C41.3516 11.1172 42.1823 11.3932 42.7188 11.6797C43.2604 11.9609 43.6823 12.349 43.9844 12.8438C44.2917 13.3333 44.4453 13.9401 44.4453 14.6641C44.4453 15.3203 44.263 15.9349 43.8984 16.5078C43.5339 17.0807 43.0182 17.5078 42.3516 17.7891C41.6849 18.0651 40.8542 18.2031 39.8594 18.2031C38.4115 18.2031 37.2995 17.8698 36.5234 17.2031C35.7474 16.5312 35.2839 15.5547 35.1328 14.2734ZM45.8047 14.2734L48.0547 14.0547C48.1901 14.8099 48.4635 15.3646 48.875 15.7188C49.2917 16.0729 49.8516 16.25 50.5547 16.25C51.2995 16.25 51.8594 16.0938 52.2344 15.7812C52.6146 15.4635 52.8047 15.0938 52.8047 14.6719C52.8047 14.401 52.724 14.1719 52.5625 13.9844C52.4062 13.7917 52.1302 13.625 51.7344 13.4844C51.4635 13.3906 50.8464 13.224 49.8828 12.9844C48.6432 12.6771 47.7734 12.2995 47.2734 11.8516C46.5703 11.2214 46.2188 10.4531 46.2188 9.54688C46.2188 8.96354 46.3828 8.41927 46.7109 7.91406C47.0443 7.40365 47.5208 7.01562 48.1406 6.75C48.7656 6.48438 49.5182 6.35156 50.3984 6.35156C51.8359 6.35156 52.9167 6.66667 53.6406 7.29688C54.3698 7.92708 54.7526 8.76823 54.7891 9.82031L52.4766 9.92188C52.3776 9.33333 52.1641 8.91146 51.8359 8.65625C51.513 8.39583 51.026 8.26562 50.375 8.26562C49.7031 8.26562 49.1771 8.40365 48.7969 8.67969C48.5521 8.85677 48.4297 9.09375 48.4297 9.39062C48.4297 9.66146 48.5443 9.89323 48.7734 10.0859C49.0651 10.3307 49.7734 10.5859 50.8984 10.8516C52.0234 11.1172 52.8542 11.3932 53.3906 11.6797C53.9323 11.9609 54.3542 12.349 54.6562 12.8438C54.9635 13.3333 55.1172 13.9401 55.1172 14.6641C55.1172 15.3203 54.9349 15.9349 54.5703 16.5078C54.2057 17.0807 53.6901 17.5078 53.0234 17.7891C52.3568 18.0651 51.526 18.2031 50.5312 18.2031C49.0833 18.2031 47.9714 17.8698 47.1953 17.2031C46.4193 16.5312 45.9557 15.5547 45.8047 14.2734Z" fill="white"/>
<path d="M18.7687 30H10.8433C9.03545 30.2225 8.20149 31.2931 8.20149 33.0173V37.7586C8.16812 40.151 7.60126 40.8001 6 41.2069V43.7931C7.60789 44.1011 8.19938 44.5653 8.20149 46.3793V51.5517C8.40019 53.7418 8.96943 54.5009 10.8433 55H13.4851V52.8448C12.2952 52.7635 11.8526 52.5272 11.7239 51.5517V45.0862C11.5633 43.7895 11.0691 43.2573 9.52239 42.5C10.9218 42.0993 11.4691 41.6806 11.7239 40.3448V33.4483C11.8041 32.6087 12.0134 32.3421 12.6045 32.1552H14.3657V47.2414C14.3657 49.3966 16.3221 50.8994 20.5299 50.6897L20.0896 47.6724C19.3 47.339 18.9777 47.0754 18.7687 46.3793L18.7687 30Z" fill="white"/>
<path fill-rule="evenodd" clip-rule="evenodd" d="M24.0522 44.2241H32.8582C33.005 42.931 32.7499 39.7548 31.9776 38.6207C31.097 37.3276 29.3358 36.0345 26.694 36.0345C22.4603 36.0345 20.0896 39.4016 20.0896 43.3621C20.0896 46.8104 21.8308 51.1207 26.694 51.1207C29.3358 51.1207 31.097 50.2586 31.9776 48.9655L30.6567 46.8104C29.9229 47.3851 28.0149 48.3621 26.2537 47.6724C24.4925 46.9828 24.0522 45.0862 24.0522 44.2241ZM29.3358 41.6379H24.0522C24.0522 40.7759 24.9328 39.0517 26.694 39.0517C28.6572 39.0517 29.3358 40.7759 29.3358 41.6379Z" fill="white"/>
<path d="M42.9851 40.3448L44.7463 37.7586C44.1592 37.0402 42.3025 36.0345 39.4627 36.0345C36.8209 36.0345 35.0597 37.3276 34.6194 38.6207C33.9967 40.4494 34.6194 42.069 35.0597 42.5C36.0818 43.5006 39.0224 44.6552 40.7836 45.9483C41.2817 46.314 41.2239 48.1035 39.0224 47.6724C38.3316 47.5372 36.3806 46.8104 35.5 46.3793L33.2985 48.9655C34.0323 49.5402 36.2925 50.7759 39.4627 51.1207C43.4254 51.5517 45.0139 48.0867 45.1866 47.2414C45.6269 45.0862 44.7463 43.7931 42.5448 42.931C42.5448 42.931 39.903 42.069 38.5821 41.2069C37.2612 40.3448 38.1418 38.6207 39.903 39.0517C40.5864 39.219 42.1045 39.9138 42.9851 40.3448Z" fill="white"/>
<path d="M54.8731 40.3448L56.6343 37.7586C56.0473 37.0402 54.1906 36.0345 51.3507 36.0345C48.709 36.0345 46.9478 37.3276 46.5075 38.6207C45.8848 40.4494 46.5075 42.069 46.9478 42.5C47.9698 43.5006 50.9104 44.6552 52.6716 45.9483C53.1698 46.314 53.1119 48.1035 50.9104 47.6724C50.2197 47.5372 48.2687 46.8104 47.3881 46.3793L45.1866 48.9655C45.9204 49.5402 48.1806 50.7759 51.3507 51.1207C55.3134 51.5517 56.9019 48.0867 57.0746 47.2414C57.5149 45.0862 56.6343 43.7931 54.4328 42.931C54.4328 42.931 51.791 42.069 50.4701 41.2069C49.1493 40.3448 50.0299 38.6207 51.791 39.0517C52.4745 39.219 53.9925 39.9138 54.8731 40.3448Z" fill="white"/>
<path d="M56.6343 30H60.1567C61.9645 30.2225 62.7985 31.2931 62.7985 33.0172V37.7586C62.8319 40.151 63.3987 40.8001 65 41.2069V43.7931C63.3921 44.101 62.8006 44.5652 62.7985 46.3793V51.5517C62.5998 53.7418 62.0306 54.5009 60.1567 55H57.5149V52.8448C58.7048 52.7635 59.1474 52.5272 59.2761 51.5517V45.0862C59.4367 43.7895 59.9309 43.2573 61.4776 42.5C60.0782 42.0993 59.5309 41.6806 59.2761 40.3448V33.4483C59.1959 32.6087 58.9866 32.3421 58.3955 32.1552H56.6343V30Z" fill="white"/>
</svg>
