<svg width="70" height="70" viewBox="0 0 70 70" fill="none" xmlns="http://www.w3.org/2000/svg">
<circle cx="35" cy="35" r="35" fill="#56A6D2"/>
<path d="M19.2578 13.7891V11.8594H24.2422V16.4219C23.7578 16.8906 23.0547 17.3047 22.1328 17.6641C21.2161 18.0182 20.2865 18.1953 19.3438 18.1953C18.1458 18.1953 17.1016 17.9453 16.2109 17.4453C15.3203 16.9401 14.651 16.2214 14.2031 15.2891C13.7552 14.3516 13.5312 13.3333 13.5312 12.2344C13.5312 11.0417 13.7812 9.98177 14.2812 9.05469C14.7812 8.1276 15.513 7.41667 16.4766 6.92188C17.2109 6.54167 18.125 6.35156 19.2188 6.35156C20.6406 6.35156 21.75 6.65104 22.5469 7.25C23.349 7.84375 23.8646 8.66667 24.0938 9.71875L21.7969 10.1484C21.6354 9.58594 21.3307 9.14323 20.8828 8.82031C20.4401 8.49219 19.8854 8.32812 19.2188 8.32812C18.2083 8.32812 17.4036 8.64844 16.8047 9.28906C16.2109 9.92969 15.9141 10.8802 15.9141 12.1406C15.9141 13.5 16.2161 14.5208 16.8203 15.2031C17.4245 15.8802 18.2161 16.2188 19.1953 16.2188C19.6797 16.2188 20.1641 16.125 20.6484 15.9375C21.138 15.7448 21.5573 15.513 21.9062 15.2422V13.7891H19.2578ZM26.3672 6.54688H28.6797V12.75C28.6797 13.7344 28.7083 14.3724 28.7656 14.6641C28.8646 15.1328 29.099 15.5104 29.4688 15.7969C29.8438 16.0781 30.3542 16.2188 31 16.2188C31.6562 16.2188 32.151 16.0859 32.4844 15.8203C32.8177 15.5495 33.0182 15.2188 33.0859 14.8281C33.1536 14.4375 33.1875 13.7891 33.1875 12.8828V6.54688H35.5V12.5625C35.5 13.9375 35.4375 14.9089 35.3125 15.4766C35.1875 16.0443 34.9557 16.5234 34.6172 16.9141C34.2839 17.3047 33.8359 17.6172 33.2734 17.8516C32.7109 18.0807 31.9766 18.1953 31.0703 18.1953C29.9766 18.1953 29.1458 18.0703 28.5781 17.8203C28.0156 17.5651 27.5703 17.237 27.2422 16.8359C26.9141 16.4297 26.6979 16.0052 26.5938 15.5625C26.4427 14.9062 26.3672 13.9375 26.3672 12.6562V6.54688ZM38.0078 18V6.64062H40.3203V16.0703H46.0703V18H38.0078ZM47.7266 18V6.54688H51.4375C52.8438 6.54688 53.7604 6.60417 54.1875 6.71875C54.8438 6.89062 55.3932 7.26562 55.8359 7.84375C56.2786 8.41667 56.5 9.15885 56.5 10.0703C56.5 10.7734 56.3724 11.3646 56.1172 11.8438C55.862 12.3229 55.5365 12.7005 55.1406 12.9766C54.75 13.2474 54.3516 13.4271 53.9453 13.5156C53.3932 13.625 52.5938 13.6797 51.5469 13.6797H50.0391V18H47.7266ZM50.0391 8.48438V11.7344H51.3047C52.2161 11.7344 52.8255 11.6745 53.1328 11.5547C53.4401 11.4349 53.6797 11.2474 53.8516 10.9922C54.0286 10.737 54.1172 10.4401 54.1172 10.1016C54.1172 9.6849 53.9948 9.34115 53.75 9.07031C53.5052 8.79948 53.1953 8.63021 52.8203 8.5625C52.5443 8.51042 51.9896 8.48438 51.1562 8.48438H50.0391Z" fill="white"/>
<path d="M40.6305 64.598L41.0716 57.2486L42.2895 55.1696C42.2895 55.1696 39.5176 56.3035 34.877 56.3035C30.2364 56.3035 27.5065 55.1906 27.5065 55.1906L28.8714 57.4584L29.3543 64.598C29.3543 65.3634 31.8785 65.9838 34.9924 65.9838C38.1062 65.9838 40.6305 65.3634 40.6305 64.598ZM39.2392 30.2772L40.165 26.6179L45.2917 21.2234L43.9405 20.0725L38.5128 25.819L37.4379 30.1909C36.6289 30.1638 35.8195 30.1503 35.0101 30.1505C29.2937 30.1505 24.6597 30.802 24.6597 31.6054C24.6597 32.409 29.2937 33.0604 35.0101 33.0604C40.7263 33.0604 45.3603 32.409 45.3603 31.6054C45.3603 31.0138 42.8471 30.5045 39.2392 30.2772Z" fill="white"/>
<path d="M38.7007 32.3264C38.7007 32.3264 38.5002 32.3713 37.9104 32.3739C37.3205 32.3763 36.9016 32.37 36.7348 32.2181C36.6899 32.1773 36.6653 32.0962 36.6656 32.0414C36.6661 31.9369 36.7402 31.8754 36.8346 31.8369L36.924 31.977C36.8851 31.9904 36.8629 32.0063 36.8628 32.0232C36.8625 32.1025 37.466 32.1568 37.9277 32.1509C38.3894 32.1452 38.9472 32.1072 38.9477 32.029C38.9477 32.0054 38.9055 31.9831 38.8321 31.9656L38.9211 31.8264C39.0407 31.8636 39.1451 31.9353 39.1449 32.0595C39.1437 32.2706 38.8751 32.3028 38.7007 32.3264Z" fill="white"/>
<path d="M45.2816 21.234C45.4105 21.0851 45.2149 20.7043 44.8447 20.3835C44.4744 20.0629 44.0696 19.9236 43.9405 20.0725C43.8115 20.2214 44.0072 20.6022 44.3776 20.9228C44.7478 21.2435 45.1527 21.383 45.2816 21.234ZM40.3839 46.6463C40.2624 45.4773 42.9409 43.7842 42.2535 43.73C40.7737 43.8146 40.0372 45.4642 39.2927 47.1919C39.0199 47.825 38.0863 50.5251 37.474 50.1927C36.8619 49.8604 38.2676 47.6402 38.6616 46.3216C38.207 46.655 36.5397 47.9504 36.11 46.7372C35.4192 47.3239 33.943 47.6418 34.1096 46.1006C33.7421 46.7516 32.9172 47.6605 31.9272 47.2828C30.627 46.787 32.6806 42.6453 33.1912 42.8542C33.7019 43.0631 33.0881 44.0066 32.9274 44.3729C32.5739 45.1792 32.1655 46.1929 32.4383 46.4003C32.9057 46.7558 34.1776 45.0555 34.2059 45.0182C34.4438 44.7039 35.1215 42.6478 35.6677 42.8839C36.214 43.12 34.3053 45.8347 35.0189 46.3734C35.1629 46.4822 35.7518 46.3064 36.11 45.9188C36.3418 45.6681 36.2621 45.1128 37.0347 43.2702C37.8074 41.4276 38.496 39.133 39.0259 39.3078C39.5558 39.4825 39.119 40.6603 38.9289 41.0993C38.0369 43.1599 36.4943 46.5641 37.2218 46.3064C37.9493 46.0488 38.3281 46.0336 39.0404 45.2C39.7528 44.3664 39.7199 42.9933 40.1947 43.0225C40.6697 43.0518 40.59 43.492 40.4748 43.8273C40.9421 43.2925 42.69 42.1662 43.1119 43.2817C43.6117 44.6023 40.6113 46.5098 41.3594 46.4125C42.0888 46.3177 43.2705 45.5693 43.775 44.8888L45.1638 32.4033C45.1638 32.4033 43.7663 33.5598 34.8756 33.5598C25.9849 33.5598 24.732 32.4273 24.732 32.4273L25.9143 43.8236C26.5419 42.0399 28.0322 38.4321 30.3813 38.5532C31.4499 38.6083 32.8764 40.6659 31.6544 40.7356C31.1372 40.765 31.0847 39.7086 30.4722 39.5534C30.0303 39.4414 29.415 39.8007 29.0173 40.19C28.2243 40.9662 26.5186 44.0284 26.744 45.5551C27.0311 47.5015 29.4298 44.8788 29.8357 44.1001C30.1216 43.5516 30.3147 41.9265 30.9398 42.097C31.565 42.2675 30.8853 43.9446 30.4321 45.4274C29.923 47.0925 29.6554 48.8488 29.0173 48.6468C28.3792 48.4449 29.4186 46.2954 29.381 45.9188C28.7812 46.4722 27.6762 47.8732 26.2626 47.1797L26.9969 54.2568C26.9969 54.2568 28.9485 55.7987 34.8274 55.7987C40.7064 55.7987 42.7303 54.2808 42.7303 54.2808L43.6421 46.084C42.8961 46.8104 40.5351 48.1003 40.3839 46.6463Z" fill="white"/>
</svg>
