<svg width="40" height="41" viewBox="0 0 40 41" fill="none" xmlns="http://www.w3.org/2000/svg">
<path fill-rule="evenodd" clip-rule="evenodd" d="M14.8394 19.1367C14.8394 17.9652 15.7311 17.0035 16.8777 16.9011L16.886 16.8978H16.8893C18.0193 16.9414 18.9209 17.8779 18.9209 19.0276L18.9209 19.0302C18.9208 19.0685 18.9193 19.1053 18.9177 19.1375L18.9176 19.1401C18.9189 19.1698 18.9192 19.1992 18.9192 19.229C18.9192 20.3821 18.016 21.3236 16.8777 21.3723H16.8693C15.7311 21.2699 14.8394 20.3082 14.8394 19.1367ZM28.5205 22.2501L28.4771 22.2792L28.4788 22.2769L28.5205 22.2501Z" fill="#56A6D2"/>
<path d="M24.1773 21.0249C25.2473 21.0249 26.1272 20.1958 26.2172 19.1334L26.2156 19.1317C26.217 19.1016 26.2172 19.073 26.2172 19.0427C26.2172 17.8897 25.3139 16.9481 24.1757 16.8995C23.0457 16.8995 22.1291 17.8226 22.1291 18.9622C22.1291 20.1018 23.0474 21.0249 24.1773 21.0249Z" fill="#56A6D2"/>
<path fill-rule="evenodd" clip-rule="evenodd" d="M40 40.2808C36 37.2597 32 34.2387 28.7204 31.8017L32.2869 40.2808H0V0H40V40.2808ZM29.3504 11.3491C31.1737 14.9173 32.2303 18.9471 32.3003 23.242H32.3019L32.2869 23.2638C30.9587 25.1083 28.8021 26.3067 26.3672 26.3067C26.3022 26.3067 26.2372 26.3067 26.1822 26.305C26.1822 26.305 25.4623 25.439 24.8623 24.6736L24.9056 24.6653C26.3496 24.3113 27.6005 23.4579 28.4771 22.2792C27.786 22.7414 27.0425 23.1315 26.1806 23.4635L26.2772 23.4283C24.554 24.15 22.6624 24.5494 20.6775 24.5494C18.1176 24.5494 15.7127 23.8865 13.6978 22.7586C13.6612 22.7318 13.1745 22.4632 12.8812 22.2551L12.8929 22.2719C13.7278 23.4115 14.9378 24.2574 16.381 24.6317C15.7811 25.397 15.0411 26.3033 15.0411 26.3033H15.0511C14.9828 26.305 14.9144 26.3067 14.8461 26.3067C12.4212 26.3067 10.273 25.1067 8.94138 23.242V23.2185C9.01138 18.9471 10.068 14.9173 11.8212 11.5002L11.8012 11.5153C13.3612 10.2733 15.3011 9.49451 17.441 9.38542L17.641 9.6271L17.5476 9.64724C15.6177 10.1407 13.8545 11.0537 12.3812 12.2655C12.3812 12.2655 12.8212 12.0205 13.5612 11.6781L13.4545 11.7217C15.5844 10.7533 17.9476 10.2145 20.4358 10.2145C23.3907 10.2145 26.1689 10.9748 28.5005 12.2655L28.5238 12.284C27.1039 11.1125 25.4373 10.2313 23.5207 9.70766L23.8007 9.38542L23.824 9.3871C25.9406 9.49451 27.8805 10.2733 29.4204 11.5002L29.3504 11.3491Z" fill="#56A6D2"/>
<path fill-rule="evenodd" clip-rule="evenodd" d="M28.4788 22.2769L28.4771 22.2792L28.5205 22.2501L28.4788 22.2769ZM24.1773 21.0249C25.2473 21.0249 26.1272 20.1958 26.2172 19.1334L26.2156 19.1317C26.217 19.1016 26.2172 19.073 26.2172 19.0427C26.2172 17.8897 25.3139 16.9481 24.1757 16.8995C23.0457 16.8995 22.1291 17.8226 22.1291 18.9622C22.1291 20.1018 23.0474 21.0249 24.1773 21.0249ZM16.8777 16.9011C15.7311 17.0035 14.8394 17.9652 14.8394 19.1367C14.8394 20.3082 15.7311 21.2699 16.8693 21.3723H16.8777C18.016 21.3236 18.9192 20.3821 18.9192 19.229C18.9192 19.198 18.9192 19.1685 18.9177 19.1375C18.9193 19.1053 18.9208 19.0685 18.9209 19.0302L18.9209 19.0276C18.9209 17.8779 18.0193 16.9414 16.8893 16.8978H16.886L16.8777 16.9011Z" fill="#56A6D2"/>
</svg>
