<svg width="26" height="27" viewBox="0 0 26 27" fill="none" xmlns="http://www.w3.org/2000/svg">
<g clip-path="url(#clip0_23_62)">
<path d="M0.0817016 5.34123C1.44149 9.29822 4.30404 13.7927 8.3367 17.8737C12.3694 21.9547 16.8105 24.8516 20.7207 26.2276C21.2517 26.4137 21.8382 26.2808 22.238 25.8792L24.943 23.1418L25.5733 22.5039C26.1423 21.9281 26.1423 20.992 25.5733 20.4162L21.386 16.1816C20.8169 15.6058 19.8919 15.6058 19.3229 16.1816L18.1879 17.3303C17.5984 17.9268 16.6588 17.9859 15.9994 17.4661C14.695 16.4385 13.4024 15.2839 12.1505 14.0171C10.8987 12.7502 9.75779 11.4421 8.74233 10.1221C8.22873 9.4547 8.28709 8.50679 8.87656 7.90734L10.0117 6.75863C10.5807 6.1828 10.5807 5.2467 10.0117 4.67087L5.82434 0.433339C5.25533 -0.142493 4.33033 -0.142493 3.76132 0.433339L3.13103 1.07118L0.426054 3.8086C0.0291778 4.21023 -0.102132 4.80378 0.0817016 5.34123Z" fill="white"/>
</g>
<defs>
<clipPath id="clip0_23_62">
<rect width="26" height="26.3118" fill="white"/>
</clipPath>
</defs>
</svg>
