<svg width="40" height="40" viewBox="0 0 40 40" fill="none" xmlns="http://www.w3.org/2000/svg">
<path fill-rule="evenodd" clip-rule="evenodd" d="M0 0V40H40V0H0ZM29.9866 22.1298C30.9049 23.0257 31.8759 23.8691 32.7 24.8594C33.0642 25.2971 33.4086 25.7485 33.6711 26.2556C34.0438 26.9821 33.706 27.778 33.0571 27.8219L29.0241 27.8201C27.9831 27.9057 27.1536 27.486 26.454 26.7738C25.8977 26.2068 25.3777 25.5998 24.8406 25.0135C24.6221 24.7721 24.3909 24.5464 24.1163 24.3663C23.5654 24.0093 23.0875 24.1177 22.7726 24.6915C22.4523 25.276 22.3771 25.925 22.3475 26.5759C22.3036 27.526 22.017 27.7745 21.0634 27.8202C19.0231 27.9147 17.0882 27.6047 15.2912 26.5777C13.7042 25.6716 12.476 24.3905 11.4069 22.942C9.32316 20.1179 7.7273 17.0175 6.29442 13.8279C5.97055 13.109 6.20712 12.7238 6.99763 12.7099C8.31543 12.6839 9.6327 12.687 10.9487 12.7081C11.484 12.7171 11.8391 13.023 12.0439 13.5287C12.756 15.2787 13.6272 16.9441 14.7206 18.4893C15.0131 18.9005 15.3105 19.3099 15.732 19.6002C16.1991 19.9222 16.5561 19.817 16.7764 19.2938C16.9167 18.9615 16.978 18.6081 17.0076 18.2528C17.1124 17.0367 17.1249 15.8193 16.9444 14.6069C16.8324 13.849 16.4039 13.3589 15.6482 13.2156C15.2629 13.1422 15.3207 13.0006 15.5062 12.7798C15.8318 12.4004 16.1382 12.1639 16.7451 12.1639H21.3031C22.022 12.3041 22.1832 12.6279 22.2809 13.3504L22.2845 18.4158C22.276 18.6957 22.4247 19.5248 22.9268 19.7085C23.329 19.8415 23.5968 19.5176 23.8382 19.2623C24.9298 18.104 25.7087 16.7343 26.4047 15.3171C26.7129 14.6941 26.979 14.0469 27.2379 13.3991C27.4287 12.9198 27.7261 12.6838 28.2667 12.6923L32.6549 12.6977C32.7844 12.6977 32.9175 12.6977 33.0451 12.7187C33.7832 12.8463 33.9862 13.1648 33.7568 13.8873C33.3985 15.0192 32.6966 15.9642 32.0127 16.9107C31.2794 17.9239 30.4992 18.9016 29.7713 19.9202C29.1065 20.8528 29.1589 21.3218 29.9866 22.1298Z" fill="#EE9543"/>
</svg>
