<svg width="70" height="70" viewBox="0 0 70 70" fill="none" xmlns="http://www.w3.org/2000/svg">
<circle cx="35" cy="35" r="35" fill="#56A6D2"/>
<path d="M13.4453 18V6.54688H15.7578V11.0547H20.2891V6.54688H22.6016V18H20.2891V12.9922H15.7578V18H13.4453ZM27.5781 18V8.48438H24.1797V6.54688H33.2812V8.48438H29.8906V18H27.5781ZM34.75 18V6.54688H38.2109L40.2891 14.3594L42.3438 6.54688H45.8125V18H43.6641V8.98438L41.3906 18H39.1641L36.8984 8.98438V18H34.75ZM48.1719 18V6.64062H50.4844V16.0703H56.2344V18H48.1719Z" fill="white"/>
<path fill-rule="evenodd" clip-rule="evenodd" d="M17 22H54L50.8692 60.3514L35.5 65L20.4154 60.3514L17 22ZM35.5 56.5743L25.8231 53.9595L25.2538 46.6959H30.0923L30.3769 50.473L35.5 51.9257V44.3716H25.2538L23.8308 29.8446H35.5V25.4865H50.3L47.4538 58.027L35.5 61.5135V56.5743Z" fill="white"/>
<path d="M29.2385 34.7838L29.5231 39.4324H35.5V34.7838H29.2385Z" fill="white"/>
<path d="M47.1692 29.8446L46.8846 34.7838H35.5V39.4324H46.3154L45.1769 53.9595L35.5 56.5743V61.5135L47.4538 58.027L50.3 25.4865H35.5V29.8446H47.1692Z" fill="white"/>
<path d="M47.1692 29.8446L46.8846 34.7838H35.5V39.4324H46.3154L45.1769 53.9595L35.5 56.5743V61.5135L47.4538 58.027L50.3 25.4865H35.5V29.8446H47.1692Z" fill="#F2F2F2"/>
<path d="M35.5 51.9257L40.6231 50.473L41.1923 44.3716H35.5V51.9257Z" fill="white"/>
</svg>
