<svg width="70" height="70" viewBox="0 0 70 70" fill="none" xmlns="http://www.w3.org/2000/svg">
<circle cx="35" cy="35" r="35" fill="#444444"/>
<path d="M28.6484 13.7891V11.8594H33.6328V16.4219C33.1484 16.8906 32.4453 17.3047 31.5234 17.6641C30.6068 18.0182 29.6771 18.1953 28.7344 18.1953C27.5365 18.1953 26.4922 17.9453 25.6016 17.4453C24.7109 16.9401 24.0417 16.2214 23.5938 15.2891C23.1458 14.3516 22.9219 13.3333 22.9219 12.2344C22.9219 11.0417 23.1719 9.98177 23.6719 9.05469C24.1719 8.1276 24.9036 7.41667 25.8672 6.92188C26.6016 6.54167 27.5156 6.35156 28.6094 6.35156C30.0312 6.35156 31.1406 6.65104 31.9375 7.25C32.7396 7.84375 33.2552 8.66667 33.4844 9.71875L31.1875 10.1484C31.026 9.58594 30.7214 9.14323 30.2734 8.82031C29.8307 8.49219 29.276 8.32812 28.6094 8.32812C27.599 8.32812 26.7943 8.64844 26.1953 9.28906C25.6016 9.92969 25.3047 10.8802 25.3047 12.1406C25.3047 13.5 25.6068 14.5208 26.2109 15.2031C26.8151 15.8802 27.6068 16.2188 28.5859 16.2188C29.0703 16.2188 29.5547 16.125 30.0391 15.9375C30.5286 15.7448 30.9479 15.513 31.2969 15.2422V13.7891H28.6484ZM35.7031 18V6.54688H38.0156V18H35.7031ZM42.8047 18V8.48438H39.4062V6.54688H48.5078V8.48438H45.1172V18H42.8047Z" fill="white"/>
<path d="M29.2846 64H25.7674C20.4916 60.5001 12.5779 57.4376 13.0176 42.125C13.1813 36.4231 17.414 24.1875 28.8449 22H35H41.1551C52.586 24.1875 56.8187 36.4231 56.9824 42.125C57.4221 57.4376 49.5084 60.5001 44.2326 64H40.7154L40.7154 56.5626C40.7154 56.2709 40.6275 55.5126 40.2758 54.8126C39.9241 54.1126 39.2499 53.6459 38.9568 53.5001C41.7413 53.5001 47.2719 51.7439 49.0688 45.1876C50.3877 40.375 48.6291 38.1875 46.8705 36.4375C48.0085 34.0041 46.8705 30.3125 46.8705 30.3125C44.2424 30.4451 42.8825 30.9713 40.7154 32.9375C39.9827 32.6459 37.462 32.0625 35 32.0625C32.538 32.0625 30.0173 32.6459 29.2846 32.9375C27.1175 30.9713 25.7576 30.4451 23.1295 30.3125C23.1295 30.3125 21.9915 34.0041 23.1295 36.4375C21.3709 38.1875 19.6123 40.375 20.9312 45.1876C22.7281 51.7439 28.2587 53.5001 31.0432 53.5001C30.7501 53.6459 30.0759 54.1126 29.7242 54.8126C29.3725 55.5126 29.2846 56.2709 29.2846 56.5626C28.6984 56.7084 27.2622 57.0001 26.207 57.0001C24.8881 57.0001 23.1295 54.8126 22.6898 53.9376C22.2502 53.0626 20.4916 52.1876 19.6123 52.1876C18.733 52.1876 17.414 52.1876 19.1726 53.5001C20.9312 54.8126 20.9312 55.2501 21.8105 57.0001C22.6898 58.7501 22.6898 58.7501 24.4484 59.6251C25.8553 60.3251 28.2587 59.9168 29.2846 59.6251L29.2846 64Z" fill="white"/>
</svg>
