<svg width="70" height="70" viewBox="0 0 70 70" fill="none" xmlns="http://www.w3.org/2000/svg">
<circle cx="35" cy="35" r="35" fill="#56A6D2"/>
<path d="M27.5391 13.7891L29.7812 14.5C29.4375 15.75 28.8646 16.6797 28.0625 17.2891C27.2656 17.8932 26.2526 18.1953 25.0234 18.1953C23.5026 18.1953 22.2526 17.6771 21.2734 16.6406C20.2943 15.599 19.8047 14.1771 19.8047 12.375C19.8047 10.4688 20.2969 8.98958 21.2812 7.9375C22.2656 6.88021 23.5599 6.35156 25.1641 6.35156C26.5651 6.35156 27.7031 6.76562 28.5781 7.59375C29.099 8.08333 29.4896 8.78646 29.75 9.70312L27.4609 10.25C27.3255 9.65625 27.0417 9.1875 26.6094 8.84375C26.1823 8.5 25.6615 8.32812 25.0469 8.32812C24.1979 8.32812 23.5078 8.63281 22.9766 9.24219C22.4505 9.85156 22.1875 10.8385 22.1875 12.2031C22.1875 13.651 22.4479 14.6823 22.9688 15.2969C23.4896 15.9115 24.1667 16.2188 25 16.2188C25.6146 16.2188 26.1432 16.0234 26.5859 15.6328C27.0286 15.2422 27.3464 14.6276 27.5391 13.7891ZM31.1875 14.2734L33.4375 14.0547C33.5729 14.8099 33.8464 15.3646 34.2578 15.7188C34.6745 16.0729 35.2344 16.25 35.9375 16.25C36.6823 16.25 37.2422 16.0938 37.6172 15.7812C37.9974 15.4635 38.1875 15.0938 38.1875 14.6719C38.1875 14.401 38.1068 14.1719 37.9453 13.9844C37.7891 13.7917 37.513 13.625 37.1172 13.4844C36.8464 13.3906 36.2292 13.224 35.2656 12.9844C34.026 12.6771 33.1562 12.2995 32.6562 11.8516C31.9531 11.2214 31.6016 10.4531 31.6016 9.54688C31.6016 8.96354 31.7656 8.41927 32.0938 7.91406C32.4271 7.40365 32.9036 7.01562 33.5234 6.75C34.1484 6.48438 34.901 6.35156 35.7812 6.35156C37.2188 6.35156 38.2995 6.66667 39.0234 7.29688C39.7526 7.92708 40.1354 8.76823 40.1719 9.82031L37.8594 9.92188C37.7604 9.33333 37.5469 8.91146 37.2188 8.65625C36.8958 8.39583 36.4089 8.26562 35.7578 8.26562C35.0859 8.26562 34.5599 8.40365 34.1797 8.67969C33.9349 8.85677 33.8125 9.09375 33.8125 9.39062C33.8125 9.66146 33.9271 9.89323 34.1562 10.0859C34.4479 10.3307 35.1562 10.5859 36.2812 10.8516C37.4062 11.1172 38.237 11.3932 38.7734 11.6797C39.3151 11.9609 39.737 12.349 40.0391 12.8438C40.3464 13.3333 40.5 13.9401 40.5 14.6641C40.5 15.3203 40.3177 15.9349 39.9531 16.5078C39.5885 17.0807 39.0729 17.5078 38.4062 17.7891C37.7396 18.0651 36.9089 18.2031 35.9141 18.2031C34.4661 18.2031 33.3542 17.8698 32.5781 17.2031C31.8021 16.5312 31.3385 15.5547 31.1875 14.2734ZM41.8594 14.2734L44.1094 14.0547C44.2448 14.8099 44.5182 15.3646 44.9297 15.7188C45.3464 16.0729 45.9062 16.25 46.6094 16.25C47.3542 16.25 47.9141 16.0938 48.2891 15.7812C48.6693 15.4635 48.8594 15.0938 48.8594 14.6719C48.8594 14.401 48.7786 14.1719 48.6172 13.9844C48.4609 13.7917 48.1849 13.625 47.7891 13.4844C47.5182 13.3906 46.901 13.224 45.9375 12.9844C44.6979 12.6771 43.8281 12.2995 43.3281 11.8516C42.625 11.2214 42.2734 10.4531 42.2734 9.54688C42.2734 8.96354 42.4375 8.41927 42.7656 7.91406C43.099 7.40365 43.5755 7.01562 44.1953 6.75C44.8203 6.48438 45.5729 6.35156 46.4531 6.35156C47.8906 6.35156 48.9714 6.66667 49.6953 7.29688C50.4245 7.92708 50.8073 8.76823 50.8438 9.82031L48.5312 9.92188C48.4323 9.33333 48.2188 8.91146 47.8906 8.65625C47.5677 8.39583 47.0807 8.26562 46.4297 8.26562C45.7578 8.26562 45.2318 8.40365 44.8516 8.67969C44.6068 8.85677 44.4844 9.09375 44.4844 9.39062C44.4844 9.66146 44.599 9.89323 44.8281 10.0859C45.1198 10.3307 45.8281 10.5859 46.9531 10.8516C48.0781 11.1172 48.9089 11.3932 49.4453 11.6797C49.987 11.9609 50.4089 12.349 50.7109 12.8438C51.0182 13.3333 51.1719 13.9401 51.1719 14.6641C51.1719 15.3203 50.9896 15.9349 50.625 16.5078C50.2604 17.0807 49.7448 17.5078 49.0781 17.7891C48.4115 18.0651 47.5807 18.2031 46.5859 18.2031C45.138 18.2031 44.026 17.8698 43.25 17.2031C42.474 16.5312 42.0104 15.5547 41.8594 14.2734Z" fill="white"/>
<path fill-rule="evenodd" clip-rule="evenodd" d="M17 22H54L50.8692 60.3514L35.5 65L20.1308 60.3514L17 22ZM35.5 56.5743L25.8231 53.9595L25.2538 46.6959H29.8077L30.0923 50.1824L35.5 51.9257V44.3716H25.2538L24.6846 39.4324L33.5077 34.7838H24.4L23.8308 29.8446H35.5V25.4865H50.3L47.4538 58.3176L35.5 61.8041V56.5743Z" fill="white"/>
<path d="M47.1692 29.8446L46.6 34.7838L37.4923 39.4324H46.3154L45.1769 53.9595L35.5 56.5743V61.8041L47.4538 58.3176L50.3 25.4865H35.5V29.8446H47.1692Z" fill="#D9D9D9"/>
<path d="M47.1692 29.8446L46.6 34.7838L37.4923 39.4324H46.3154L45.1769 53.9595L35.5 56.5743V61.8041L47.4538 58.3176L50.3 25.4865H35.5V29.8446H47.1692Z" fill="#F2F2F2"/>
<path d="M35.5 51.9257L40.6231 50.473L40.9077 44.3716H35.5V51.9257Z" fill="#D9D9D9"/>
</svg>
