<svg width="70" height="70" fill="none" xmlns="http://www.w3.org/2000/svg"><circle cx="35" cy="35" r="35" fill="#56A6D2"/><path d="M19.258 13.79v-1.93h4.984v4.562c-.484.469-1.187.883-2.11 1.242a7.683 7.683 0 0 1-2.788.531c-1.198 0-2.242-.25-3.133-.75a4.82 4.82 0 0 1-2.008-2.156 6.994 6.994 0 0 1-.672-3.055c0-1.192.25-2.252.75-3.18a5.051 5.051 0 0 1 2.196-2.132c.734-.38 1.648-.57 2.742-.57 1.422 0 2.531.299 3.328.898.802.594 1.318 1.417 1.547 2.469l-2.297.43a2.4 2.4 0 0 0-.914-1.329c-.443-.328-.998-.492-1.664-.492-1.01 0-1.815.32-2.414.961-.594.64-.89 1.591-.89 2.852 0 1.359.301 2.38.905 3.062.604.677 1.396 1.016 2.375 1.016a4 4 0 0 0 1.453-.282c.49-.192.91-.424 1.258-.695V13.79h-2.648Zm7.11-7.243h2.312v6.203c0 .984.028 1.622.086 1.914.099.469.333.846.703 1.133.375.281.885.422 1.531.422.656 0 1.151-.133 1.484-.399.334-.27.534-.601.602-.992.068-.39.102-1.039.102-1.945V6.547H35.5v6.016c0 1.374-.063 2.346-.188 2.914-.124.567-.356 1.046-.695 1.437-.333.39-.781.703-1.344.938-.562.229-1.296.343-2.203.343-1.093 0-1.924-.125-2.492-.375-.562-.255-1.008-.583-1.336-.984a3.185 3.185 0 0 1-.648-1.273c-.151-.657-.227-1.626-.227-2.907v-6.11ZM38.007 18V6.64h2.312v9.43h5.75V18h-8.062Zm9.719 0V6.547h3.71c1.407 0 2.323.057 2.75.172.657.172 1.206.547 1.649 1.125.443.573.664 1.315.664 2.226 0 .703-.128 1.295-.383 1.774a3.16 3.16 0 0 1-.976 1.133c-.391.27-.79.45-1.196.539-.552.109-1.351.164-2.398.164h-1.508V18h-2.312Zm2.312-9.516v3.25h1.266c.911 0 1.52-.06 1.828-.18.307-.12.547-.307.719-.562.177-.255.265-.552.265-.89 0-.417-.122-.76-.367-1.032a1.6 1.6 0 0 0-.93-.508c-.276-.052-.83-.078-1.664-.078H50.04ZM40.63 64.598l.442-7.35 1.217-2.078s-2.771 1.133-7.412 1.133c-4.64 0-7.37-1.112-7.37-1.112l1.364 2.267.483 7.14c0 .765 2.524 1.386 5.638 1.386s5.639-.62 5.639-1.386Zm-1.39-34.32.925-3.66 5.127-5.395-1.352-1.15-5.427 5.746-1.075 4.372a71.986 71.986 0 0 0-2.428-.04c-5.716 0-10.35.651-10.35 1.454 0 .804 4.634 1.455 10.35 1.455 5.716 0 10.35-.651 10.35-1.455 0-.591-2.513-1.1-6.12-1.328Z" fill="#fff"/><path d="M38.7 32.326s-.2.045-.79.048c-.59.002-1.008-.004-1.175-.156a.263.263 0 0 1-.07-.177c.001-.104.075-.166.17-.204l.089.14c-.039.013-.061.03-.061.046 0 .08.603.134 1.065.128.461-.006 1.02-.044 1.02-.122 0-.024-.042-.046-.116-.063l.09-.14c.119.038.223.11.223.233-.001.212-.27.244-.444.267ZM45.282 21.234c.129-.149-.067-.53-.437-.85-.37-.321-.775-.46-.904-.311-.13.148.066.53.437.85.37.32.775.46.904.311Zm-4.898 25.412c-.122-1.169 2.557-2.862 1.87-2.916-1.48.085-2.217 1.734-2.961 3.462-.273.633-1.207 3.333-1.819 3-.612-.332.794-2.552 1.188-3.87-.455.333-2.122 1.628-2.552.415-.69.587-2.167.905-2-.636-.368.65-1.193 1.56-2.183 1.182-1.3-.496.754-4.638 1.264-4.429.51.21-.103 1.153-.264 1.519-.353.806-.761 1.82-.489 2.027.468.356 1.74-1.344 1.768-1.382.238-.314.915-2.37 1.462-2.134.546.236-1.363 2.95-.65 3.49.145.108.734-.068 1.092-.455.232-.25.152-.806.925-2.649.772-1.842 1.461-4.137 1.99-3.962.53.175.094 1.352-.096 1.791-.892 2.06-2.435 5.465-1.707 5.207.727-.257 1.106-.272 1.818-1.106.713-.834.68-2.207 1.155-2.178.475.03.395.47.28.805.467-.535 2.215-1.66 2.637-.545.5 1.32-2.5 3.228-1.753 3.13.73-.094 1.911-.843 2.416-1.523l1.389-12.486s-1.398 1.157-10.288 1.157c-8.891 0-10.144-1.133-10.144-1.133l1.182 11.397c.628-1.784 2.118-5.392 4.467-5.27 1.069.054 2.495 2.112 1.273 2.182-.517.029-.57-1.027-1.182-1.183-.442-.112-1.057.248-1.455.637-.793.776-2.498 3.838-2.273 5.365.287 1.947 2.686-.676 3.092-1.455.286-.548.479-2.174 1.104-2.003.625.17-.055 1.848-.508 3.33-.509 1.666-.777 3.422-1.415 3.22-.638-.202.402-2.352.364-2.728-.6.553-1.705 1.954-3.118 1.26l.734 7.078s1.951 1.542 7.83 1.542c5.88 0 7.903-1.518 7.903-1.518l.912-8.197c-.746.726-3.107 2.016-3.258.562Z" fill="#fff"/></svg>