<svg width="70" height="70" fill="none" xmlns="http://www.w3.org/2000/svg"><circle cx="35" cy="35" r="35" fill="#56A6D2"/><path d="M30.508 6.547h2.305v7.25c0 .948-.084 1.677-.25 2.187a3.118 3.118 0 0 1-1.22 1.61c-.588.4-1.364.601-2.327.601-1.13 0-2-.315-2.61-.945-.61-.635-.916-1.565-.922-2.79l2.18-.25c.026.657.122 1.12.29 1.392.25.411.63.617 1.14.617.515 0 .88-.146 1.093-.438.214-.297.32-.909.32-1.836V6.547Zm4.187 7.726 2.25-.218c.136.755.41 1.31.82 1.664.417.354.977.531 1.68.531.745 0 1.305-.156 1.68-.469.38-.318.57-.687.57-1.11 0-.27-.08-.5-.242-.687-.156-.192-.432-.359-.828-.5-.27-.093-.888-.26-1.852-.5-1.24-.307-2.109-.684-2.609-1.132-.703-.63-1.055-1.399-1.055-2.305 0-.583.164-1.128.493-1.633.333-.51.81-.898 1.43-1.164.624-.266 1.377-.398 2.257-.398 1.438 0 2.518.315 3.242.945.73.63 1.112 1.471 1.149 2.523l-2.313.102c-.099-.589-.312-1.01-.64-1.266-.323-.26-.81-.39-1.461-.39-.672 0-1.198.138-1.578.414a.834.834 0 0 0-.368.71c0 .271.115.503.344.696.292.245 1 .5 2.125.766 1.125.265 1.956.541 2.492.828.542.28.964.669 1.266 1.164.307.49.46 1.096.46 1.82 0 .656-.181 1.27-.546 1.844-.365.573-.88 1-1.547 1.281-.667.276-1.497.414-2.492.414-1.448 0-2.56-.333-3.336-1-.776-.672-1.24-1.648-1.39-2.93Z" fill="#fff"/><path fill-rule="evenodd" clip-rule="evenodd" d="M17 22h37l-3.13 38.642L35.5 65l-15.085-4.358L17 22Zm13.092 29.054-7.115-1.743v4.358l11.1 3.196v-26.73h-3.985v20.92ZM50.87 25.486H35.5v36.028l12.239-3.487 3.13-32.54Z" fill="#fff"/><path fill-rule="evenodd" clip-rule="evenodd" d="M35.5 25.486h15.37l-3.131 32.541L35.5 61.513V25.487Zm12.808 4.65H36.923v15.979l6.546-.872-.569 5.23-5.977 1.743v4.649l9.677-2.906 1.139-13.655-6.547 1.162v-7.263h6.831l.285-4.068Z" fill="#F2F2F2"/></svg>