<svg width="70" height="70" fill="none" xmlns="http://www.w3.org/2000/svg"><circle cx="35" cy="35" r="35" fill="#56A6D2"/><path d="m27.54 13.79 2.241.71c-.343 1.25-.916 2.18-1.718 2.79-.797.603-1.81.905-3.04.905-1.52 0-2.77-.518-3.75-1.554-.979-1.042-1.468-2.464-1.468-4.266 0-1.906.492-3.385 1.476-4.438.985-1.057 2.279-1.585 3.883-1.585 1.401 0 2.54.414 3.414 1.242.521.49.912 1.192 1.172 2.11l-2.29.546c-.134-.594-.418-1.063-.85-1.406-.428-.344-.948-.516-1.563-.516-.85 0-1.54.305-2.07.914-.526.61-.79 1.596-.79 2.961 0 1.448.26 2.48.782 3.094.52.614 1.198.922 2.031.922.615 0 1.143-.196 1.586-.586.443-.39.76-1.005.953-1.844Zm3.648.483 2.25-.218c.135.755.408 1.31.82 1.664.416.354.976.531 1.68.531.744 0 1.304-.156 1.68-.469.38-.318.57-.687.57-1.11 0-.27-.081-.5-.243-.687-.156-.192-.432-.359-.828-.5-.27-.093-.888-.26-1.851-.5-1.24-.307-2.11-.684-2.61-1.132-.703-.63-1.054-1.399-1.054-2.305 0-.583.164-1.128.492-1.633.333-.51.81-.898 1.43-1.164.624-.266 1.377-.398 2.257-.398 1.438 0 2.519.315 3.242.945.73.63 1.112 1.471 1.149 2.523l-2.313.102c-.099-.589-.312-1.01-.64-1.266-.323-.26-.81-.39-1.461-.39-.672 0-1.198.138-1.578.414a.834.834 0 0 0-.367.71c0 .271.114.503.343.696.292.245 1 .5 2.125.766 1.125.265 1.956.541 2.492.828.542.28.964.669 1.266 1.164.307.49.461 1.096.461 1.82 0 .656-.182 1.27-.547 1.844-.364.573-.88 1-1.547 1.281-.666.276-1.497.414-2.492.414-1.448 0-2.56-.333-3.336-1-.776-.672-1.24-1.648-1.39-2.93Zm10.671 0 2.25-.218c.136.755.41 1.31.82 1.664.417.354.977.531 1.68.531.745 0 1.305-.156 1.68-.469.38-.318.57-.687.57-1.11 0-.27-.08-.5-.242-.687-.156-.192-.432-.359-.828-.5-.27-.093-.888-.26-1.852-.5-1.24-.307-2.109-.684-2.609-1.132-.703-.63-1.055-1.399-1.055-2.305 0-.583.164-1.128.493-1.633.333-.51.81-.898 1.43-1.164.624-.266 1.377-.398 2.257-.398 1.438 0 2.518.315 3.242.945.73.63 1.112 1.471 1.149 2.523l-2.313.102c-.099-.589-.312-1.01-.64-1.266-.323-.26-.81-.39-1.461-.39-.672 0-1.198.138-1.578.414a.834.834 0 0 0-.368.71c0 .271.115.503.344.696.292.245 1 .5 2.125.766 1.125.265 1.956.541 2.492.828.542.28.964.669 1.266 1.164.307.49.46 1.096.46 1.82 0 .656-.181 1.27-.546 1.844-.365.573-.88 1-1.547 1.281-.667.276-1.497.414-2.492.414-1.448 0-2.56-.333-3.336-1-.776-.672-1.24-1.648-1.39-2.93Z" fill="#fff"/><path fill-rule="evenodd" clip-rule="evenodd" d="M17 22h37l-3.13 38.351L35.5 65l-15.37-4.649L17 22Zm18.5 34.574-9.677-2.614-.57-7.264h4.555l.284 3.486 5.408 1.744v-7.554H25.254l-.57-4.94 8.824-4.648H24.4l-.57-4.94H35.5v-4.358h14.8l-2.846 32.832L35.5 61.804v-5.23Z" fill="#fff"/><path d="m47.17 29.845-.57 4.939-9.108 4.648h8.823L45.177 53.96 35.5 56.575v5.23l11.954-3.486L50.3 25.487H35.5v4.358h11.67Z" fill="#D9D9D9"/><path d="m47.17 29.845-.57 4.939-9.108 4.648h8.823L45.177 53.96 35.5 56.575v5.23l11.954-3.486L50.3 25.487H35.5v4.358h11.67Z" fill="#F2F2F2"/><path d="m35.5 51.926 5.123-1.453.285-6.101H35.5v7.554Z" fill="#D9D9D9"/></svg>