<svg width="26" height="27" fill="none" xmlns="http://www.w3.org/2000/svg"><g clip-path="url(#a)"><path d="M.082 5.341c1.36 3.957 4.222 8.452 8.255 12.533 4.032 4.08 8.474 6.978 12.384 8.354a1.455 1.455 0 0 0 1.517-.349l2.705-2.737.63-.638a1.49 1.49 0 0 0 0-2.088l-4.187-4.234a1.448 1.448 0 0 0-2.063 0l-1.135 1.148c-.59.597-1.53.656-2.189.136a41.792 41.792 0 0 1-3.849-3.449 41.981 41.981 0 0 1-3.408-3.895 1.692 1.692 0 0 1 .135-2.215l1.135-1.148a1.49 1.49 0 0 0 0-2.088L5.824.433a1.448 1.448 0 0 0-2.063 0l-.63.638L.426 3.81A1.491 1.491 0 0 0 .082 5.34Z" fill="#fff"/></g><defs><clipPath id="a"><path fill="#fff" d="M0 0h26v26.312H0z"/></clipPath></defs></svg>