<svg width="40" height="41" fill="none" xmlns="http://www.w3.org/2000/svg"><path fill-rule="evenodd" clip-rule="evenodd" d="M14.84 19.137a2.24 2.24 0 0 1 2.038-2.236l.008-.003h.003c1.13.043 2.032.98 2.032 2.13v.002c0 .038-.002.075-.003.107v.003l.001.089a2.139 2.139 0 0 1-2.041 2.143h-.009a2.24 2.24 0 0 1-2.03-2.235Zm13.68 3.113-.043.03.002-.003.041-.027Z" fill="#56A6D2"/><path d="M24.177 21.025c1.07 0 1.95-.83 2.04-1.892l-.001-.001.001-.09a2.139 2.139 0 0 0-2.041-2.143c-1.13 0-2.047.924-2.047 2.063 0 1.14.918 2.063 2.048 2.063Z" fill="#56A6D2"/><path fill-rule="evenodd" clip-rule="evenodd" d="M40 40.28c-4-3.02-8-6.041-11.28-8.478l3.567 8.479H0V0h40v40.28ZM29.35 11.35a27.012 27.012 0 0 1 2.95 11.892h.002l-.015.022a7.28 7.28 0 0 1-5.92 3.043c-.065 0-.13 0-.185-.002 0 0-.72-.866-1.32-1.631l.044-.009a6.332 6.332 0 0 0 3.571-2.386 11.5 11.5 0 0 1-2.296 1.184l.096-.035a14.462 14.462 0 0 1-5.6 1.121c-2.56 0-4.964-.662-6.98-1.79-.036-.027-.522-.296-.816-.504l.012.017a6.247 6.247 0 0 0 3.488 2.36c-.6.765-1.34 1.671-1.34 1.671h.01a8.244 8.244 0 0 1-.205.004c-2.425 0-4.573-1.2-5.905-3.065v-.024c.07-4.27 1.127-8.3 2.88-11.718l-.02.015a9.813 9.813 0 0 1 5.64-2.13l.2.242-.093.02a13.357 13.357 0 0 0-5.167 2.618s.44-.245 1.18-.587l-.107.044a16.822 16.822 0 0 1 6.982-1.508c2.955 0 5.733.76 8.064 2.051l.024.019a13.286 13.286 0 0 0-5.003-2.576l.28-.323.023.002A9.766 9.766 0 0 1 29.42 11.5l-.07-.15Z" fill="#56A6D2"/><path fill-rule="evenodd" clip-rule="evenodd" d="m28.479 22.277-.002.002.043-.029-.041.027Zm-4.302-1.252c1.07 0 1.95-.83 2.04-1.892l-.001-.001.001-.09a2.139 2.139 0 0 0-2.041-2.143c-1.13 0-2.047.924-2.047 2.063 0 1.14.918 2.063 2.048 2.063Zm-7.3-4.124a2.24 2.24 0 0 0-2.038 2.236 2.24 2.24 0 0 0 2.03 2.235h.009a2.139 2.139 0 0 0 2.041-2.143l-.001-.091c.001-.033.003-.07.003-.108v-.002c0-1.15-.902-2.087-2.032-2.13h-.003l-.008.003Z" fill="#56A6D2"/></svg>