<svg width="70" height="70" fill="none" xmlns="http://www.w3.org/2000/svg"><circle cx="35" cy="35" r="35" fill="#E44F26"/><path d="M13.445 18V6.547h2.313v4.508h4.531V6.547h2.313V18h-2.313v-5.008h-4.531V18h-2.313Zm14.133 0V8.484H24.18V6.547h9.101v1.937h-3.39V18h-2.313Zm7.172 0V6.547h3.46l2.08 7.812 2.054-7.812h3.468V18h-2.148V8.984L41.391 18h-2.227l-2.266-9.016V18H34.75Zm13.422 0V6.64h2.312v9.43h5.75V18h-8.062Z" fill="#fff"/><path fill-rule="evenodd" clip-rule="evenodd" d="M17 22h37l-3.13 38.351L35.5 65l-15.085-4.649L17 22Zm18.5 34.574-9.677-2.614-.57-7.264h4.84l.284 3.777 5.123 1.453v-7.554H25.254L23.83 29.845H35.5v-4.358h14.8l-2.846 32.54L35.5 61.513v-4.939Z" fill="#fff"/><path d="m29.238 34.784.285 4.648H35.5v-4.648h-6.262ZM47.17 29.845l-.285 4.939H35.5v4.648h10.815L45.177 53.96 35.5 56.575v4.94l11.954-3.487 2.846-32.54H35.5v4.358h11.67Z" fill="#fff"/><path d="m47.17 29.845-.285 4.939H35.5v4.648h10.815L45.177 53.96 35.5 56.575v4.94l11.954-3.487 2.846-32.54H35.5v4.358h11.67Z" fill="#F2F2F2"/><path d="m35.5 51.926 5.123-1.453.57-6.101H35.5v7.554Z" fill="#fff"/></svg>