<svg width="40" height="40" fill="none" xmlns="http://www.w3.org/2000/svg"><path fill-rule="evenodd" clip-rule="evenodd" d="M0 0v40h40V0H0Zm33.83 8.851-4.7 22.605a.752.752 0 0 1-1.178.455l-6.415-4.658a1.06 1.06 0 0 0-1.294.037l-3.557 2.899a.751.751 0 0 1-1.193-.359l-2.47-7.943-6.38-2.381c-.648-.243-.654-1.158-.008-1.407L32.823 7.996a.752.752 0 0 1 1.007.855Z" fill="#56A6D2"/><path fill-rule="evenodd" clip-rule="evenodd" d="m27.566 12.939-12.47 7.68a1.256 1.256 0 0 0-.55 1.413l1.35 4.738c.095.335.582.301.629-.046l.35-2.598c.066-.489.3-.94.662-1.277l10.291-9.566c.193-.179-.038-.482-.262-.344Z" fill="#56A6D2"/></svg>