<svg width="70" height="70" fill="none" xmlns="http://www.w3.org/2000/svg"><circle cx="35" cy="35" r="35" fill="#444"/><path d="M47.376 38.05a26.537 26.537 0 0 0-1.276-.403c.073-.294.139-.584.198-.87.965-4.688.334-8.465-1.822-9.709-2.068-1.192-5.45.051-8.865 3.023-.328.286-.657.589-.987.906-.219-.21-.438-.413-.656-.607-3.58-3.178-7.167-4.517-9.321-3.27-2.066 1.196-2.678 4.747-1.808 9.19.084.429.182.867.293 1.313-.508.144-.998.298-1.467.461-4.196 1.463-6.876 3.756-6.876 6.134 0 2.456 2.877 4.92 7.247 6.414.345.118.703.23 1.072.335-.12.482-.224.954-.311 1.415-.83 4.366-.182 7.833 1.878 9.02 2.128 1.228 5.7-.033 9.177-3.073.275-.24.55-.495.827-.762.358.345.716.671 1.072.977 3.368 2.899 6.695 4.07 8.753 2.878 2.126-1.23 2.817-4.955 1.92-9.486a22.49 22.49 0 0 0-.238-1.06c.251-.073.497-.15.737-.23 4.544-1.505 7.5-3.939 7.5-6.428 0-2.387-2.766-4.695-7.047-6.169Zm-.985 10.99c-.217.071-.44.14-.666.208-.502-1.588-1.178-3.277-2.007-5.022a39.693 39.693 0 0 0 1.929-4.947c.406.117.799.24 1.178.371 3.668 1.263 5.905 3.13 5.905 4.568 0 1.532-2.416 3.521-6.34 4.821Zm-1.628 3.225c.397 2.003.453 3.815.19 5.23-.236 1.273-.71 2.122-1.297 2.461-1.25.723-3.92-.216-6.801-2.695-.33-.285-.663-.588-.997-.91 1.117-1.22 2.233-2.64 3.323-4.217 1.916-.17 3.726-.448 5.367-.828.081.326.153.646.215.959ZM28.301 59.83c-1.22.431-2.192.444-2.78.105-1.25-.721-1.77-3.505-1.06-7.238.08-.428.177-.867.289-1.316 1.623.359 3.42.617 5.34.773a41.216 41.216 0 0 0 3.403 4.203c-.253.245-.505.477-.755.696-1.538 1.344-3.079 2.298-4.437 2.777ZM22.584 49.03c-1.933-.66-3.529-1.52-4.623-2.456-.983-.842-1.48-1.678-1.48-2.356 0-1.443 2.152-3.284 5.741-4.535a24.45 24.45 0 0 1 1.364-.43 40.594 40.594 0 0 0 1.932 5.006 41.247 41.247 0 0 0-1.956 5.077 20.973 20.973 0 0 1-.978-.306ZM24.5 35.985c-.744-3.807-.25-6.679.995-7.4 1.326-.767 4.258.328 7.348 3.072.198.175.396.359.595.549a40.563 40.563 0 0 0-3.376 4.178c-1.864.172-3.649.45-5.29.822a24.794 24.794 0 0 1-.272-1.221Zm17.097 4.221a53.786 53.786 0 0 0-1.205-1.982c1.264.16 2.476.372 3.614.632a36.156 36.156 0 0 1-1.269 3.413c-.36-.683-.74-1.371-1.14-2.063Zm-6.972-6.79c.78.846 1.563 1.79 2.332 2.815a49.879 49.879 0 0 0-4.684 0 37.333 37.333 0 0 1 2.352-2.816Zm-7.017 6.802a50.03 50.03 0 0 0-1.119 2.05 37.374 37.374 0 0 1-1.259-3.43c1.13-.253 2.337-.46 3.593-.617-.416.65-.822 1.316-1.215 1.997Zm1.252 10.118a36.023 36.023 0 0 1-3.653-.587c.35-1.13.78-2.305 1.284-3.5a49.965 49.965 0 0 0 2.368 4.086Zm5.812 4.804a38.01 38.01 0 0 1-2.385-2.854c.759.03 1.533.045 2.32.045.807 0 1.605-.018 2.392-.053a36.008 36.008 0 0 1-2.327 2.862Zm8.081-8.951c.53 1.207.977 2.376 1.331 3.486a35.99 35.99 0 0 1-3.697.63c.411-.651.818-1.324 1.217-2.016.403-.7.787-1.401 1.15-2.1Zm-2.616 1.254a55.478 55.478 0 0 1-1.901 3.068 50.997 50.997 0 0 1-3.63.127c-1.233 0-2.433-.038-3.588-.113a47.675 47.675 0 0 1-3.628-6.266 47.583 47.583 0 0 1 3.608-6.255 47.67 47.67 0 0 1 7.225.001 50.986 50.986 0 0 1 1.908 3.05 55.496 55.496 0 0 1 1.71 3.18 51.007 51.007 0 0 1-1.704 3.208Zm3.493-18.908c1.327.766 1.843 3.853 1.01 7.9-.054.259-.114.522-.179.788a40.55 40.55 0 0 0-5.3-.837 39.772 39.772 0 0 0-3.35-4.181c.305-.293.609-.573.912-.836 2.926-2.547 5.66-3.552 6.907-2.834ZM34.606 40.68a3.54 3.54 0 1 1 0 7.078 3.54 3.54 0 0 1 0-7.078Z" fill="#00D8FF"/><path d="M8.602 22.873V11.42h4.867c1.224 0 2.112.104 2.664.313a2.61 2.61 0 0 1 1.336 1.093c.333.526.5 1.128.5 1.805 0 .86-.253 1.57-.758 2.133-.505.557-1.26.909-2.266 1.055.5.291.912.612 1.235.96.328.35.768.97 1.32 1.86l1.398 2.234h-2.765l-1.672-2.492c-.594-.89-1-1.45-1.219-1.68a1.72 1.72 0 0 0-.695-.476c-.245-.089-.633-.133-1.164-.133h-.469v4.781H8.602Zm2.312-6.61h1.711c1.11 0 1.802-.046 2.078-.14.276-.094.492-.255.649-.484.156-.23.234-.516.234-.86 0-.385-.104-.695-.313-.93-.203-.239-.492-.39-.867-.452-.187-.026-.75-.04-1.687-.04h-1.805v2.907Zm9.242 6.61V11.42h8.492v1.938h-6.18v2.539h5.75v1.93h-5.75v3.117h6.4v1.93h-8.712Zm21 0h-2.515l-1-2.601h-4.578l-.946 2.601h-2.453l4.461-11.453h2.445l4.586 11.453Zm-4.258-4.531-1.578-4.25-1.547 4.25h3.125Zm12.82.32 2.243.711c-.344 1.25-.917 2.18-1.719 2.79-.797.604-1.81.906-3.039.906-1.52 0-2.77-.519-3.75-1.555-.98-1.042-1.469-2.464-1.469-4.266 0-1.906.492-3.385 1.477-4.437.984-1.057 2.279-1.586 3.883-1.586 1.4 0 2.539.414 3.414 1.242.52.49.911 1.193 1.172 2.11l-2.29.546c-.135-.593-.419-1.062-.851-1.406-.427-.344-.948-.516-1.563-.516-.848 0-1.538.305-2.07.915-.526.609-.789 1.596-.789 2.96 0 1.448.26 2.48.781 3.094.521.615 1.198.922 2.032.922.614 0 1.143-.195 1.586-.586.442-.39.76-1.005.953-1.844Zm6.813 4.211v-9.515h-3.398V11.42h9.101v1.938h-3.39v9.515H56.53Z" fill="#fff"/></svg>