<svg width="70" height="70" fill="none" xmlns="http://www.w3.org/2000/svg"><circle cx="35" cy="35" r="35" fill="#56A6D2"/><path d="M28.648 13.79v-1.93h4.985v4.562c-.485.469-1.188.883-2.11 1.242a7.683 7.683 0 0 1-2.789.531c-1.198 0-2.242-.25-3.132-.75a4.82 4.82 0 0 1-2.008-2.156 6.993 6.993 0 0 1-.672-3.055c0-1.192.25-2.252.75-3.18a5.05 5.05 0 0 1 2.195-2.132c.735-.38 1.649-.57 2.742-.57 1.422 0 2.532.299 3.328.898.803.594 1.318 1.417 1.547 2.469l-2.297.43a2.4 2.4 0 0 0-.914-1.329c-.442-.328-.997-.492-1.664-.492-1.01 0-1.815.32-2.414.961-.593.64-.89 1.591-.89 2.852 0 1.359.302 2.38.906 3.062.604.677 1.396 1.016 2.375 1.016a4 4 0 0 0 1.453-.282c.49-.192.909-.424 1.258-.695V13.79h-2.649ZM35.703 18V6.547h2.313V18h-2.313Zm7.102 0V8.484h-3.399V6.547h9.102v1.937h-3.39V18h-2.313ZM29.285 64h-3.518c-5.275-3.5-13.19-6.562-12.75-21.875.164-5.702 4.397-17.938 15.828-20.125h12.31c11.431 2.188 15.664 14.423 15.827 20.125.44 15.313-7.474 18.375-12.75 21.875h-3.517v-7.437a4.36 4.36 0 0 0-.44-1.75c-.35-.7-1.025-1.167-1.318-1.313 2.784 0 8.315-1.756 10.112-8.312 1.319-4.813-.44-7-2.199-8.75 1.139-2.434 0-6.126 0-6.126-2.628.133-3.987.66-6.155 2.625-.732-.291-3.253-.874-5.715-.874-2.462 0-4.983.583-5.715.874-2.168-1.966-3.527-2.492-6.155-2.624 0 0-1.139 3.691 0 6.125-1.76 1.75-3.518 3.937-2.199 8.75 1.797 6.556 7.328 8.312 10.112 8.312-.293.146-.967.613-1.319 1.313a4.36 4.36 0 0 0-.44 1.75c-.586.145-2.022.437-3.077.437-1.319 0-3.078-2.187-3.517-3.062-.44-.875-2.198-1.75-3.078-1.75-.879 0-2.198 0-.44 1.312 1.76 1.313 1.76 1.75 2.639 3.5.879 1.75.879 1.75 2.637 2.625 1.407.7 3.81.292 4.837 0V64Z" fill="#fff"/></svg>