<svg width="70" height="70" fill="none" xmlns="http://www.w3.org/2000/svg"><circle cx="35" cy="35" r="35" fill="#2E4F82"/><path d="M15.328 18V6.64h2.313v9.43h5.75V18h-8.063Zm9.719 0V6.547h8.492v1.937h-6.18v2.54h5.75v1.93h-5.75v3.116h6.399V18h-8.711Zm10.086-3.727 2.25-.218c.135.755.409 1.31.82 1.664.417.354.977.531 1.68.531.745 0 1.304-.156 1.68-.469.38-.318.57-.687.57-1.11 0-.27-.08-.5-.242-.687-.157-.192-.433-.359-.828-.5-.271-.093-.889-.26-1.852-.5-1.24-.307-2.11-.684-2.61-1.132-.703-.63-1.054-1.399-1.054-2.305 0-.583.164-1.128.492-1.633.333-.51.81-.898 1.43-1.164.625-.266 1.377-.398 2.258-.398 1.437 0 2.518.315 3.242.945.729.63 1.112 1.471 1.148 2.523l-2.312.102c-.1-.589-.313-1.01-.64-1.266-.324-.26-.81-.39-1.462-.39-.672 0-1.198.138-1.578.414a.834.834 0 0 0-.367.71c0 .271.114.503.344.696.291.245 1 .5 2.125.766 1.125.265 1.955.541 2.492.828.541.28.963.669 1.265 1.164.308.49.461 1.096.461 1.82 0 .656-.182 1.27-.547 1.844-.364.573-.88 1-1.546 1.281-.667.276-1.498.414-2.493.414-1.448 0-2.56-.333-3.336-1-.776-.672-1.24-1.648-1.39-2.93Zm10.672 0 2.25-.218c.135.755.409 1.31.82 1.664.417.354.977.531 1.68.531.745 0 1.304-.156 1.68-.469.38-.318.57-.687.57-1.11 0-.27-.081-.5-.242-.687-.157-.192-.433-.359-.829-.5-.27-.093-.888-.26-1.851-.5-1.24-.307-2.11-.684-2.61-1.132-.703-.63-1.054-1.399-1.054-2.305 0-.583.164-1.128.492-1.633.333-.51.81-.898 1.43-1.164.625-.266 1.377-.398 2.257-.398 1.438 0 2.519.315 3.243.945.729.63 1.112 1.471 1.148 2.523l-2.312.102c-.1-.589-.313-1.01-.641-1.266-.323-.26-.81-.39-1.461-.39-.672 0-1.198.138-1.578.414a.834.834 0 0 0-.367.71c0 .271.114.503.343.696.292.245 1 .5 2.125.766 1.125.265 1.956.541 2.493.828.541.28.963.669 1.265 1.164.308.49.461 1.096.461 1.82 0 .656-.182 1.27-.547 1.844-.364.573-.88 1-1.547 1.281-.666.276-1.497.414-2.492.414-1.448 0-2.56-.333-3.336-1-.776-.672-1.24-1.648-1.39-2.93ZM18.769 30h-7.926c-1.808.223-2.642 1.293-2.642 3.017v4.742C8.168 40.15 7.601 40.8 6 41.207v2.586c1.608.308 2.2.772 2.201 2.586v5.173c.2 2.19.768 2.949 2.642 3.448h2.642v-2.155c-1.19-.081-1.632-.318-1.761-1.293v-6.466c-.16-1.297-.655-1.829-2.202-2.586 1.4-.4 1.947-.82 2.202-2.155v-6.897c.08-.84.29-1.106.88-1.293h1.762v15.086c0 2.156 1.956 3.658 6.164 3.449l-.44-3.018c-.79-.333-1.112-.597-1.321-1.293V30Z" fill="#fff"/><path fill-rule="evenodd" clip-rule="evenodd" d="M24.052 44.224h8.806c.147-1.293-.108-4.47-.88-5.603-.881-1.293-2.642-2.587-5.284-2.587-4.234 0-6.604 3.368-6.604 7.328 0 3.448 1.74 7.759 6.604 7.759 2.642 0 4.403-.862 5.284-2.156l-1.321-2.155c-.734.575-2.642 1.552-4.403.862-1.762-.69-2.202-2.586-2.202-3.448Zm5.284-2.586h-5.284c0-.862.88-2.586 2.642-2.586 1.963 0 2.642 1.724 2.642 2.586Z" fill="#fff"/><path d="m42.985 40.345 1.761-2.586c-.587-.719-2.444-1.724-5.283-1.724-2.642 0-4.403 1.293-4.844 2.586-.622 1.828 0 3.448.44 3.879 1.023 1 3.963 2.155 5.725 3.448.498.366.44 2.155-1.762 1.724-.69-.135-2.641-.862-3.522-1.293l-2.202 2.587c.734.574 2.994 1.81 6.165 2.155 3.962.43 5.55-3.034 5.724-3.88.44-2.155-.44-3.448-2.642-4.31 0 0-2.642-.862-3.963-1.724-1.32-.862-.44-2.586 1.321-2.155.683.167 2.202.862 3.082 1.293ZM54.873 40.345l1.761-2.586c-.587-.719-2.443-1.724-5.283-1.724-2.642 0-4.403 1.293-4.843 2.586-.623 1.828 0 3.448.44 3.879 1.022 1 3.962 2.155 5.724 3.448.498.366.44 2.155-1.762 1.724-.69-.135-2.641-.862-3.522-1.293l-2.201 2.587c.733.574 2.994 1.81 6.164 2.155 3.962.43 5.55-3.034 5.724-3.88.44-2.155-.44-3.448-2.642-4.31 0 0-2.642-.862-3.963-1.724-1.32-.862-.44-2.586 1.321-2.155.684.167 2.202.862 3.082 1.293Z" fill="#fff"/><path d="M56.634 30h3.523c1.808.223 2.642 1.293 2.642 3.017v4.742c.033 2.392.6 3.041 2.201 3.448v2.586c-1.608.308-2.2.772-2.202 2.586v5.173c-.198 2.19-.767 2.949-2.641 3.448h-2.642v-2.155c1.19-.081 1.632-.318 1.761-1.293v-6.466c.16-1.297.655-1.829 2.202-2.586-1.4-.4-1.947-.82-2.202-2.155v-6.897c-.08-.84-.29-1.106-.88-1.293h-1.762V30Z" fill="#fff"/></svg>